<svg width="24" height="24" viewBox="0 0 24 24" fill="none" xmlns="http://www.w3.org/2000/svg">
    <path opacity="0.32" d="M16.5 19H6.5C4.01472 19 2 16.9853 2 14.5C2 12.2561 3.64939 10.4011 5.8074 10.0708C5.41278 9.31089 5.2 8.44413 5.2 7.5C5.2 4.46243 7.66243 2 10.7 2C13.2379 2 15.3975 3.77169 16.032 6.14118C16.3071 6.04859 16.5996 6 16.9 6C19.1539 6 21 7.84614 21 10.1C21 10.2921 20.9859 10.4811 20.9587 10.6657C22.2331 11.3158 23.1 12.6013 23.1 14.1C23.1 16.2539 21.3539 18 19.2 18" fill="#1877F2"/>
    <path d="M16.5 19H6.5C4.01472 19 2 16.9853 2 14.5C2 12.2561 3.64939 10.4011 5.8074 10.0708C5.41278 9.31089 5.2 8.44413 5.2 7.5C5.2 4.46243 7.66243 2 10.7 2C13.2379 2 15.3975 3.77169 16.032 6.14118C16.3071 6.04859 16.5996 6 16.9 6C19.1539 6 21 7.84614 21 10.1C21 10.2921 20.9859 10.4811 20.9587 10.6657C22.2331 11.3158 23.1 12.6013 23.1 14.1C23.1 16.2539 21.3539 18 19.2 18" stroke="#1877F2" stroke-width="2" stroke-linecap="round" stroke-linejoin="round"/>
</svg>